<?xml version="1.0" encoding="UTF-8" standalone="no"?>
<!-- Uploaded to: SVG Repo, www.svgrepo.com, Generator: SVG Repo Mixer Tools -->

<svg
   width="800px"
   height="800px"
   viewBox="0 0 24 24"
   version="1.1"
   id="svg1"
   sodipodi:docname="location_unknown.svg"
   inkscape:version="1.4.2 (f4327f4, 2025-05-13)"
   xmlns:inkscape="http://www.inkscape.org/namespaces/inkscape"
   xmlns:sodipodi="http://sodipodi.sourceforge.net/DTD/sodipodi-0.dtd"
   xmlns="http://www.w3.org/2000/svg"
   xmlns:svg="http://www.w3.org/2000/svg">
  <defs
     id="defs1" />
  <sodipodi:namedview
     id="namedview1"
     pagecolor="#ffffff"
     bordercolor="#000000"
     borderopacity="0.25"
     inkscape:showpageshadow="2"
     inkscape:pageopacity="0.0"
     inkscape:pagecheckerboard="0"
     inkscape:deskcolor="#d1d1d1"
     inkscape:zoom="1.41625"
     inkscape:cx="399.64695"
     inkscape:cy="400"
     inkscape:window-width="2560"
     inkscape:window-height="1351"
     inkscape:window-x="-9"
     inkscape:window-y="-4"
     inkscape:window-maximized="1"
     inkscape:current-layer="svg1" />
  <path
     fill="none"
     stroke="#000000"
     stroke-width="1.85557"
     d="m 2.7221376,4.56917 c 0,-1.0200878 0.8333491,-1.8470324 1.8470324,-1.8470324 h 14.86166 c 1.020088,0 1.847032,0.8333491 1.847032,1.8470324 v 14.86166 c 0,1.020088 -0.833349,1.847032 -1.847032,1.847032 H 4.56917 c -1.0200878,0 -1.8470324,-0.833349 -1.8470324,-1.847032 z M 12,14.783358 V 13.855572 C 12,12.927786 12,12.463893 12.927786,12 c 0.927786,-0.463893 1.855572,-0.927787 1.855572,-2.3194655 0,-0.9277862 -0.927786,-2.3194656 -2.783358,-2.3194656 -1.855572,0 -2.7833586,1.1728491 -2.7833586,2.7833591 M 12,15.711145 v 1.855572"
     id="path1" />
</svg>
