<?xml version="1.0" encoding="UTF-8" standalone="no"?>
<!-- Uploaded to: SVG Repo, www.svgrepo.com, Generator: SVG Repo Mixer Tools -->

<svg
   width="800px"
   height="800px"
   viewBox="0 0 36 36"
   aria-hidden="true"
   role="img"
   class="iconify iconify--twemoji"
   preserveAspectRatio="xMidYMid meet"
   version="1.1"
   id="svg2"
   sodipodi:docname="location_gpkg.svg"
   inkscape:version="1.4.2 (f4327f4, 2025-05-13)"
   xmlns:inkscape="http://www.inkscape.org/namespaces/inkscape"
   xmlns:sodipodi="http://sodipodi.sourceforge.net/DTD/sodipodi-0.dtd"
   xmlns="http://www.w3.org/2000/svg"
   xmlns:svg="http://www.w3.org/2000/svg">
  <defs
     id="defs2" />
  <sodipodi:namedview
     id="namedview2"
     pagecolor="#ffffff"
     bordercolor="#000000"
     borderopacity="0.25"
     inkscape:showpageshadow="2"
     inkscape:pageopacity="0.0"
     inkscape:pagecheckerboard="0"
     inkscape:deskcolor="#d1d1d1"
     inkscape:zoom="1.41625"
     inkscape:cx="399.64695"
     inkscape:cy="400"
     inkscape:window-width="2560"
     inkscape:window-height="1351"
     inkscape:window-x="-9"
     inkscape:window-y="-4"
     inkscape:window-maximized="1"
     inkscape:current-layer="svg2" />
  <path
     fill="#77b255"
     d="m 32.036187,28.917034 a 3.1191526,3.1191526 0 0 1 -3.119153,3.119153 H 7.0829652 A 3.1191526,3.1191526 0 0 1 3.9638127,28.917034 V 7.0829652 A 3.1191526,3.1191526 0 0 1 7.0829652,3.9638126 H 28.917034 a 3.1191526,3.1191526 0 0 1 3.119153,3.1191526 z"
     id="path1"
     style="stroke-width:0.779788" />
  <path
     fill="#FFF"
     d="M29.28 6.362a2.502 2.502 0 0 0-3.458.736L14.936 23.877l-5.029-4.65a2.5 2.5 0 1 0-3.394 3.671l7.209 6.666c.48.445 1.09.665 1.696.665c.673 0 1.534-.282 2.099-1.139c.332-.506 12.5-19.27 12.5-19.27a2.5 2.5 0 0 0-.737-3.458z"
     id="path2" />
</svg>
