<?xml version="1.0" encoding="UTF-8" standalone="no"?>
<!-- Uploaded to: SVG Repo, www.svgrepo.com, Generator: SVG Repo Mixer Tools -->

<svg
   width="800px"
   height="800px"
   viewBox="0 0 128 128"
   aria-hidden="true"
   role="img"
   class="iconify iconify--noto"
   preserveAspectRatio="xMidYMid meet"
   version="1.1"
   id="svg113"
   sodipodi:docname="location_gpkg_project.svg"
   xml:space="preserve"
   inkscape:version="1.4.2 (f4327f4, 2025-05-13)"
   xmlns:inkscape="http://www.inkscape.org/namespaces/inkscape"
   xmlns:sodipodi="http://sodipodi.sourceforge.net/DTD/sodipodi-0.dtd"
   xmlns="http://www.w3.org/2000/svg"
   xmlns:svg="http://www.w3.org/2000/svg"><defs
     id="defs113" /><sodipodi:namedview
     id="namedview113"
     pagecolor="#ffffff"
     bordercolor="#000000"
     borderopacity="0.25"
     inkscape:showpageshadow="2"
     inkscape:pageopacity="0.0"
     inkscape:pagecheckerboard="0"
     inkscape:deskcolor="#d1d1d1"
     inkscape:zoom="0.25036"
     inkscape:cx="-101.85333"
     inkscape:cy="798.84967"
     inkscape:window-width="2194"
     inkscape:window-height="1224"
     inkscape:window-x="2686"
     inkscape:window-y="50"
     inkscape:window-maximized="0"
     inkscape:current-layer="svg113" /><path
     d="M62.54 4.84L10.38 31.73c-1.14.67-1.47 1.67-1.46 3.12l.1 1.81L64.09 64.9l54.94-27.79s.06-.28.06-1.26c0 0-.05-1.29-.34-1.89c-.32-.68-1-1.29-1.44-1.66c-1.17-.97-2.34-1.83-4.33-2.95C84.45 13.22 65.69 4.91 65.69 4.91c-1.21-.45-2.21-.61-3.15-.07z"
     fill="#dea66c"
     id="path2" /><path
     d="M9.74 96.16c3.04 2.01 8.59 4.65 14.2 7.69c13.04 7.06 29.52 15.64 37.72 19.01c1.11.46 1.77.68 2.54.72c.57.03 1.51-.35 1.51-.35s-1.53-55.19-1.62-58.34c-.09-3.08-1.38-4.1-2.52-4.84c-1.78-1.14-5.64-2.92-5.64-2.92s-13.52-6.72-27.02-13.8c-6.42-3.37-11.84-6.82-17.67-9.66c-1.07-.51-2.33.13-2.33 1.33v59.8c0 .57.35 1.05.83 1.36z"
     fill="#b38251"
     id="path3" /><path
     d="M117.58 96.51L65.82 123.2c-.83.43-1.82-.17-1.82-1.11l.09-57.18c0-.55-.17-1.76-.34-2.24c-.47-1.4.55-1.96 1.01-2.19l51.34-26.44c1.36-.7 2.99.29 2.99 1.82v58.19c0 1.03-.58 1.98-1.51 2.46z"
     fill="#966239"
     id="path4" /><path
     d="M94.46 47.59S66.09 62.1 65.63 63.33c-.46 1.22 22.26-9.7 24.92-11.07c3.01-1.55 26.65-14.19 26.65-15.58c.01-1.14-22.74 10.91-22.74 10.91z"
     opacity=".5"
     fill="#212121"
     id="path5" /><g
     opacity=".5"
     id="g10"><path
       d="M12.81 92.85c3.69 1.86 7.35 3.78 11.91 6.11v-1.78c-4.54-2.32-8.21-4.23-11.91-6.11v1.78z"
       fill="#212121"
       id="path6" /><path
       d="M20.58 93.66c1.04.53 1.56.8 2.54 1.3c.01-3.1.01-4.65.02-7.75c-.98-.5-1.49-.76-2.52-1.29c-.02 3.1-.03 4.64-.04 7.74z"
       fill="#212121"
       id="path7" /><path
       d="M14.12 90.34c.86.44 1.34.69 2.32 1.19l.05-7.72c-.99-.51-1.47-.75-2.34-1.21c-.01 3.1-.02 4.65-.03 7.74z"
       fill="#212121"
       id="path8" /><path
       d="M18.95 85.99c2.37 1.21 3.63 1.86 5.72 2.92c-1.04-1.89-1.61-2.85-2.75-4.79c-1.17.76-1.78 1.13-2.97 1.87z"
       fill="#212121"
       id="path9" /><path
       d="M12.81 82.84c1.77.92 2.96 1.53 5.3 2.73c-1.16-1.95-1.74-2.92-2.81-4.83c-1.09.79-1.6 1.2-2.49 2.1z"
       fill="#212121"
       id="path10" /></g><g
     opacity=".5"
     id="g13"><path
       d="M31.81 101.4c.83.43 1.26.66 2.09 1.09c-.06-3.68-.09-5.52-.16-9.2c-.8-.42-1.2-.63-2-1.04c.03 3.66.04 5.49.07 9.15z"
       fill="#212121"
       id="path11" /><path
       d="M28.76 100.75c3.04 1.6 5.4 2.8 8.32 4.36c-.02-1.05-.83-2.32-1.93-2.91c-1.72-.91-2.7-1.41-4.44-2.32c-1.12-.57-1.95-.16-1.95.87z"
       fill="#212121"
       id="path12" /><path
       d="M34.55 90.36l1.28 2.71c-.4.85-.61 1.28-1.03 2.12c.36-.03.54-.04.9-.07c.48-.64.72-.96 1.18-1.6c-.42-.99-.64-1.49-1.08-2.48c1.22.67 1.82 1.01 2.93 1.66c0 3.58-2.34 5.16-5.86 3.32c-3.52-1.83-5.85-5.92-5.85-9.51c2.62 1.31 4.38 2.17 7.53 3.85z"
       fill="#212121"
       id="path13" /></g><path
     d="M100.74 41.49c-.5-.37-54.19-28.42-54.19-28.42l-16.66 8.61l55.05 28.39l.03.03l16.11-8.25s-.03-.08-.12-.18c-.07-.06-.19-.15-.22-.18z"
     fill="#ffe0b2"
     id="path14" /><path
     d="M101 41.73c-9.12 4.49-16.06 8.34-16.06 8.34c.23.23.24.53.24.68c-.03 1.16-.05 2.08-.08 3.23c-.14 5.95-.22 11.91-.42 17.86c.67-.4 1.48.48 2.09 0c.94-.74 2.94-4 3.24-4.1c.4-.13.83-.03 1.24-.05c1.8-.1 5.83-3.77 6.69-3.94c.83-.16 3.57.37 3.57.37s-.19-18.15-.26-21.2c-.02-1.08-.25-1.19-.25-1.19z"
     fill="#bf9f85"
     id="path15" /><linearGradient
     id="IconifyId17ecdb2904d178eab14737"
     gradientUnits="userSpaceOnUse"
     x1="28.2"
     y1="-108.368"
     x2="14.107"
     y2="-79.066"
     gradientTransform="matrix(-1 0 0 1 124.88 0)"><stop
       offset=".31"
       stop-color="#fce8b2"
       id="stop103" /><stop
       offset=".399"
       stop-color="#ffcc80"
       id="stop104" /></linearGradient><g
     id="g114-8-5"
     transform="matrix(1.8514118,0.99749484,0.01501774,2.0548165,2.9047552,23.803815)"><path
       fill="#77b255"
       d="m 32.036187,28.917034 a 3.1191526,3.1191526 0 0 1 -3.119153,3.119153 H 7.0829652 A 3.1191526,3.1191526 0 0 1 3.9638127,28.917034 V 7.0829652 A 3.1191526,3.1191526 0 0 1 7.0829652,3.9638126 H 28.917034 a 3.1191526,3.1191526 0 0 1 3.119153,3.1191526 z"
       id="path1-0-8-5"
       style="stroke-width:0.779788" /><path
       fill="#ffffff"
       d="M 29.28,6.362 A 2.502,2.502 0 0 0 25.822,7.098 L 14.936,23.877 9.907,19.227 a 2.5,2.5 0 1 0 -3.394,3.671 l 7.209,6.666 c 0.48,0.445 1.09,0.665 1.696,0.665 0.673,0 1.534,-0.282 2.099,-1.139 0.332,-0.506 12.5,-19.27 12.5,-19.27 A 2.5,2.5 0 0 0 29.28,6.362 Z"
       id="path2-9-2-1" /></g></svg>
