<?xml version="1.0" encoding="UTF-8" standalone="no"?>
<!-- Uploaded to: SVG Repo, www.svgrepo.com, Generator: SVG Repo Mixer Tools -->

<svg
   height="800px"
   width="800px"
   version="1.1"
   id="Layer_1"
   viewBox="0 0 512 512"
   xml:space="preserve"
   sodipodi:docname="location_empty.svg"
   inkscape:version="1.4.2 (f4327f4, 2025-05-13)"
   xmlns:inkscape="http://www.inkscape.org/namespaces/inkscape"
   xmlns:sodipodi="http://sodipodi.sourceforge.net/DTD/sodipodi-0.dtd"
   xmlns="http://www.w3.org/2000/svg"
   xmlns:svg="http://www.w3.org/2000/svg"><defs
   id="defs5" /><sodipodi:namedview
   id="namedview5"
   pagecolor="#ffffff"
   bordercolor="#000000"
   borderopacity="0.25"
   inkscape:showpageshadow="2"
   inkscape:pageopacity="0.0"
   inkscape:pagecheckerboard="0"
   inkscape:deskcolor="#d1d1d1"
   inkscape:zoom="1.00144"
   inkscape:cx="267.61464"
   inkscape:cy="342.5068"
   inkscape:window-width="2362"
   inkscape:window-height="1224"
   inkscape:window-x="2656"
   inkscape:window-y="61"
   inkscape:window-maximized="0"
   inkscape:current-layer="Layer_1" />
<polygon
   style="fill:#f5d3a1;fill-opacity:1"
   points="255.849,226.983 460.802,132.39 255.849,37.796 50.895,132.39 "
   id="polygon1"
   transform="matrix(0.89626353,0,0,0.89626353,28.119567,25.278429)" />
<path
   style="fill:#ddb680;stroke-width:0.896264;fill-opacity:1"
   d="M 437.01471,364.84669 257.4268,447.73314 V 228.71501 l 183.6919,-84.78115 v 214.49648 c 9e-4,2.7569 -1.60073,5.26196 -4.10399,6.41635 z"
   id="path1" />
<path
   style="fill:#9c7c58;stroke-width:0.896264;fill-opacity:1"
   d="M 77.83889,364.84669 257.4268,447.73314 V 228.71501 L 73.734003,143.93386 v 214.49648 c 8.96e-4,2.7569 1.603415,5.26196 4.104887,6.41635 z"
   id="path2" />
<path
   style="fill:#f5d3a1;stroke-width:0.896264;fill-opacity:1"
   d="m 441.1196,143.93476 -183.6919,84.78115 32.82923,98.48771 c 1.33185,3.99465 5.84006,5.94492 9.66352,4.18017 L 470.70346,252.561 c 3.26868,-1.50841 4.88105,-5.23328 3.7419,-8.64894 z"
   id="path3" />
<path
   style="fill:#f5d3a1;stroke-width:0.896264;fill-opacity:1"
   d="m 73.734899,143.93476 183.692801,84.78115 -32.82924,98.48771 c -1.33185,3.99465 -5.84005,5.94492 -9.66351,4.18017 L 44.151929,252.561 c -3.268673,-1.50841 -4.881052,-5.23328 -3.741901,-8.64894 z"
   id="path4" />
<polygon
   style="fill:#cfa871;fill-opacity:1"
   points="255.849,226.983 460.802,132.39 255.849,37.796 "
   id="polygon4"
   transform="matrix(0.89626353,0,0,0.89626353,28.119567,25.278429)" />
<path
   d="M 486.65516,248.57173 450.53126,140.8776 c -0.003,-0.007 -0.006,-0.0143 -0.009,-0.0215 -0.0116,-0.0349 -0.026,-0.069 -0.0385,-0.10397 -0.0368,-0.10217 -0.0798,-0.20255 -0.121,-0.30383 -0.0341,-0.0816 -0.0636,-0.16581 -0.10038,-0.24647 -0.003,-0.005 -0.004,-0.0108 -0.006,-0.0161 -0.007,-0.0152 -0.0161,-0.0287 -0.0233,-0.0439 -0.043,-0.0914 -0.0914,-0.17836 -0.13892,-0.26798 -0.0493,-0.0932 -0.0959,-0.18912 -0.14967,-0.28143 -0.009,-0.0152 -0.0179,-0.0287 -0.0269,-0.0439 -0.0457,-0.0753 -0.0968,-0.14788 -0.1452,-0.22137 -0.0645,-0.0977 -0.12637,-0.19808 -0.19538,-0.29308 -0.01,-0.0135 -0.0188,-0.026 -0.0287,-0.0394 -0.0502,-0.0672 -0.10576,-0.12906 -0.15864,-0.19449 -0.0744,-0.0932 -0.14788,-0.18732 -0.22765,-0.27694 -0.0116,-0.0126 -0.0224,-0.026 -0.0332,-0.0385 -0.0574,-0.0636 -0.1219,-0.12189 -0.18284,-0.18374 -0.0798,-0.0807 -0.15685,-0.16312 -0.2411,-0.24019 -0.0143,-0.0134 -0.0287,-0.0278 -0.043,-0.0412 -0.0627,-0.0565 -0.13175,-0.10755 -0.19628,-0.16133 -0.002,-0.002 -0.004,-0.003 -0.005,-0.004 -0.0842,-0.0699 -0.1658,-0.14251 -0.25364,-0.20793 -0.0188,-0.0143 -0.0376,-0.0296 -0.0574,-0.0439 -0.0574,-0.0421 -0.1201,-0.0798 -0.17925,-0.1201 -0.0108,-0.007 -0.0224,-0.0152 -0.0332,-0.0224 -0.0878,-0.0601 -0.17478,-0.12279 -0.26619,-0.17835 -0.026,-0.0161 -0.0511,-0.0314 -0.0771,-0.0466 -0.0592,-0.035 -0.12189,-0.0654 -0.18194,-0.0986 -0.005,-0.003 -0.0117,-0.006 -0.017,-0.009 -0.0968,-0.0538 -0.1927,-0.10935 -0.29308,-0.15774 -0.0341,-0.017 -0.0681,-0.0323 -0.10218,-0.0484 -0.0134,-0.006 -0.026,-0.0143 -0.0394,-0.0206 L 260.00894,51.039732 c -0.0215,-0.0099 -0.0448,-0.01703 -0.0672,-0.02599 -0.16312,-0.07349 -0.33073,-0.137128 -0.50012,-0.197178 -0.0511,-0.01882 -0.10217,-0.03944 -0.15326,-0.05646 -0.19001,-0.06184 -0.38539,-0.113825 -0.58257,-0.159535 -0.0332,-0.0072 -0.0645,-0.01792 -0.0977,-0.0251 -0.22676,-0.0484 -0.458,-0.08604 -0.69192,-0.111137 -0.003,0 -0.006,-8.96e-4 -0.009,-8.96e-4 -0.23213,-0.0242 -0.46875,-0.03764 -0.70805,-0.03764 -0.004,0 -0.009,0 -0.0134,0 -0.242,0 -0.47951,0.01524 -0.71433,0.03944 -0.0269,0.0027 -0.0529,0.009 -0.0798,0.01255 -0.20973,0.0251 -0.41766,0.05736 -0.62111,0.101278 -0.043,0.0099 -0.0851,0.0233 -0.12817,0.03316 -0.18642,0.04392 -0.37195,0.09321 -0.5521,0.153261 -0.0565,0.01882 -0.11203,0.04123 -0.1685,0.06184 -0.16401,0.05915 -0.32713,0.121892 -0.48577,0.193593 -0.0233,0.01075 -0.0475,0.01792 -0.0708,0.02868 L 67.739792,137.61162 c -0.01524,0.007 -0.02778,0.0161 -0.04302,0.0224 -0.03137,0.0152 -0.06363,0.0287 -0.09411,0.0448 -0.104863,0.052 -0.205244,0.11024 -0.309211,0.1676 -0.06274,0.0349 -0.128166,0.0663 -0.189112,0.10307 -0.0242,0.0143 -0.0484,0.0296 -0.0726,0.0439 -0.0959,0.0592 -0.186423,0.12547 -0.28053,0.18911 -0.0027,0.002 -0.0054,0.004 -0.0072,0.005 -0.06453,0.0439 -0.13175,0.0851 -0.194489,0.13086 -0.01882,0.0134 -0.03585,0.0278 -0.05467,0.0421 -0.08783,0.0663 -0.17029,0.13982 -0.255435,0.21063 -0.06632,0.0556 -0.136232,0.10755 -0.199867,0.1658 -0.01434,0.0135 -0.02778,0.0278 -0.04212,0.0403 -0.08246,0.0753 -0.158639,0.15774 -0.23751,0.2393 -0.06095,0.0627 -0.126373,0.12189 -0.18463,0.18642 -0.01165,0.0126 -0.02241,0.0269 -0.03406,0.0394 -0.07708,0.0869 -0.147884,0.18015 -0.221377,0.27156 -0.05378,0.0672 -0.111137,0.13176 -0.162224,0.20077 -0.0099,0.0134 -0.01882,0.0269 -0.02868,0.0394 -0.06722,0.0923 -0.12727,0.19001 -0.190008,0.2877 -0.04929,0.0762 -0.102174,0.14968 -0.14878,0.22855 -0.009,0.0152 -0.01793,0.0296 -0.02689,0.0439 -0.05198,0.0896 -0.0968,0.18284 -0.145195,0.27605 -0.0475,0.0914 -0.09769,0.18104 -0.140713,0.27515 -0.0072,0.0152 -0.01613,0.0287 -0.02241,0.043 -0.0027,0.005 -0.0045,0.0108 -0.0063,0.017 -0.03585,0.0789 -0.06543,0.16133 -0.09769,0.24289 -0.04212,0.10217 -0.08515,0.20435 -0.121892,0.30921 -0.01165,0.0341 -0.02599,0.0681 -0.03764,0.10217 -0.0027,0.008 -0.0063,0.0152 -0.009,0.0224 L 28.462836,249.43125 c -1.079101,3.25792 0.464265,6.80622 3.582365,8.23845 l 186.948919,85.85846 c 0.89179,0.4096 1.85168,0.61484 2.81069,0.61484 0.91419,0 1.82927,-0.18553 2.6861,-0.55837 1.75757,-0.76451 3.10555,-2.23976 3.70784,-4.05918 l 22.6674,-68.43062 0.32086,170.67726 -173.467323,-79.66618 -0.126374,-67.53166 c -0.0072,-3.71591 -3.021304,-6.72287 -6.73542,-6.72287 -0.0045,0 -0.009,0 -0.01344,0 -3.719494,0.007 -6.730043,3.02847 -6.722873,6.74796 l 0.13444,71.8409 c 0,0.0547 0.0072,0.10666 0.0081,0.16044 0.0036,0.13981 0.0099,0.27963 0.02151,0.41855 0.009,0.0968 0.02061,0.1918 0.03316,0.2877 0.01524,0.11562 0.03227,0.23213 0.05378,0.34686 0.02061,0.11292 0.04571,0.22496 0.0726,0.33699 0.02241,0.0941 0.04661,0.18911 0.07349,0.28322 0.03495,0.121 0.0726,0.24199 0.113826,0.3603 0.02958,0.0842 0.06005,0.16849 0.09231,0.25185 0.0466,0.11741 0.0959,0.23303 0.148779,0.34864 0.03854,0.0842 0.07887,0.1685 0.120996,0.25185 0.05378,0.10487 0.109344,0.20704 0.167601,0.30921 0.05288,0.0914 0.107552,0.18105 0.164913,0.27068 0.05646,0.0869 0.112929,0.17208 0.172979,0.25812 0.06901,0.0968 0.140713,0.1927 0.215103,0.2868 0.05647,0.0717 0.114722,0.14072 0.173875,0.20973 0.08335,0.0968 0.169394,0.1909 0.25902,0.28412 0.06095,0.0627 0.122788,0.12458 0.186423,0.18463 0.09142,0.0878 0.185527,0.17298 0.283219,0.25722 0.0726,0.0619 0.147884,0.1219 0.22317,0.18105 0.09142,0.0717 0.183734,0.14071 0.279634,0.20793 0.095,0.0672 0.191801,0.12996 0.291286,0.19091 0.08246,0.0511 0.164016,0.10307 0.250057,0.15057 0.121892,0.0699 0.248265,0.13265 0.374638,0.19449 0.0484,0.0233 0.09321,0.052 0.142506,0.0744 l 186.948915,85.85846 c 0.0117,0.005 0.0242,0.009 0.0367,0.0143 0.0215,0.01 0.0421,0.0188 0.0636,0.0278 0.14878,0.0654 0.30204,0.1219 0.45619,0.17657 0.0592,0.0215 0.11741,0.0457 0.17746,0.0645 0.0583,0.0188 0.11741,0.0367 0.17657,0.0538 0.0439,0.0135 0.0887,0.0215 0.13265,0.0341 0.0574,0.0152 0.11472,0.0305 0.17208,0.0439 0.069,0.017 0.13802,0.0385 0.20703,0.0529 0.10307,0.0215 0.20883,0.0349 0.31459,0.0511 0.0717,0.0116 0.14251,0.0251 0.21421,0.034 0.28501,0.0367 0.56913,0.0609 0.85324,0.0609 0.002,0 0.003,0 0.004,0 0.002,0 0.003,0 0.004,0 0.28501,0 0.57092,-0.0242 0.85682,-0.0609 0.0726,-0.01 0.14341,-0.0224 0.21511,-0.0349 0.10755,-0.017 0.21689,-0.0305 0.32355,-0.0529 0.0663,-0.0143 0.13175,-0.0349 0.19807,-0.0511 0.0574,-0.0143 0.11472,-0.0296 0.17119,-0.0448 0.0457,-0.0126 0.0923,-0.0224 0.13802,-0.0359 0.0618,-0.0179 0.12279,-0.0367 0.18374,-0.0565 0.0591,-0.0188 0.11741,-0.0439 0.17746,-0.0645 0.15147,-0.0547 0.30383,-0.11113 0.44992,-0.17566 0.0224,-0.01 0.0448,-0.0197 0.0672,-0.0305 0.0152,-0.007 0.0296,-0.0107 0.0448,-0.0179 l 186.62448,-86.56113 c 0.0484,-0.0224 0.0932,-0.0511 0.14071,-0.0744 0.12637,-0.0618 0.25096,-0.12638 0.37285,-0.19539 0.0842,-0.0484 0.16491,-0.0995 0.24737,-0.15057 0.0986,-0.0627 0.19628,-0.12638 0.29218,-0.19359 0.0941,-0.0663 0.18552,-0.13624 0.27694,-0.20704 0.0762,-0.06 0.15147,-0.121 0.22497,-0.18463 0.0959,-0.0825 0.18821,-0.1676 0.28053,-0.25544 0.0636,-0.0618 0.12637,-0.12368 0.18821,-0.18821 0.0878,-0.0914 0.17298,-0.18553 0.25633,-0.28233 0.06,-0.0708 0.11921,-0.1425 0.17657,-0.2151 0.0726,-0.0932 0.1434,-0.18642 0.21062,-0.28411 0.0609,-0.0861 0.1192,-0.17298 0.17567,-0.26261 0.0565,-0.0878 0.11024,-0.17656 0.16132,-0.26798 0.0592,-0.10307 0.11473,-0.20704 0.1685,-0.31459 0.0412,-0.0816 0.0807,-0.16402 0.1192,-0.24827 0.0529,-0.11561 0.10218,-0.23392 0.14878,-0.35402 0.0314,-0.0816 0.0609,-0.16402 0.0896,-0.24826 0.0412,-0.11921 0.0789,-0.2411 0.11383,-0.36389 0.026,-0.0932 0.0493,-0.18642 0.0717,-0.28142 0.026,-0.11204 0.0511,-0.22407 0.0717,-0.33879 0.0206,-0.11472 0.0376,-0.23034 0.052,-0.34686 0.0125,-0.095 0.0242,-0.1909 0.0323,-0.2877 0.0116,-0.13981 0.017,-0.28053 0.0206,-0.42034 9e-4,-0.0538 0.008,-0.10576 0.008,-0.15864 l -0.13444,-71.84001 c -0.007,-3.7159 -3.02131,-6.72287 -6.73542,-6.72287 -0.004,0 -0.009,0 -0.0134,0 -3.71949,0.007 -6.73004,3.02848 -6.72287,6.74797 l 0.12637,67.53166 -173.16528,80.32314 -0.32086,-170.67726 22.92463,68.34458 c 0.60945,1.81583 1.96281,3.28749 3.72307,4.04484 0.85056,0.36657 1.75668,0.54851 2.6628,0.54851 0.96797,0 1.93593,-0.20793 2.83399,-0.6247 l 186.62447,-86.56023 c 3.12169,-1.44567 4.65161,-4.99846 3.55996,-8.2519 z M 257.50836,222.16153 86.645575,143.69097 250.48255,67.699478 250.7335,200.85466 c 0.007,3.71591 3.02131,6.72287 6.73542,6.72287 0.004,0 0.009,0 0.0135,0 3.71949,-0.007 6.73004,-3.02847 6.72287,-6.74796 l -0.251,-133.156084 164.12198,75.374864 z M 217.777,328.14828 43.145425,247.94524 74.601586,152.98164 249.23406,233.18289 Z m 79.86066,-0.15057 -31.81287,-94.8453 174.32863,-80.85731 31.81288,94.8444 z"
   id="path5"
   style="stroke-width:0.896264" />
</svg>
