<?xml version="1.0" encoding="UTF-8" standalone="no"?>
<!-- Uploaded to: SVG Repo, www.svgrepo.com, Generator: SVG Repo Mixer Tools -->

<svg
   width="800px"
   height="800px"
   viewBox="0 0 24 24"
   fill="none"
   version="1.1"
   id="svg3"
   sodipodi:docname="main_rename_move.svg"
   xml:space="preserve"
   inkscape:version="1.4.2 (f4327f4, 2025-05-13)"
   xmlns:inkscape="http://www.inkscape.org/namespaces/inkscape"
   xmlns:sodipodi="http://sodipodi.sourceforge.net/DTD/sodipodi-0.dtd"
   xmlns="http://www.w3.org/2000/svg"
   xmlns:svg="http://www.w3.org/2000/svg"><defs
     id="defs3" /><sodipodi:namedview
     id="namedview3"
     pagecolor="#ffffff"
     bordercolor="#000000"
     borderopacity="0.25"
     inkscape:showpageshadow="2"
     inkscape:pageopacity="0.0"
     inkscape:pagecheckerboard="0"
     inkscape:deskcolor="#d1d1d1"
     inkscape:zoom="1.00144"
     inkscape:cx="410.9083"
     inkscape:cy="367.97013"
     inkscape:window-width="2542"
     inkscape:window-height="1333"
     inkscape:window-x="2676"
     inkscape:window-y="19"
     inkscape:window-maximized="0"
     inkscape:current-layer="svg3" /><g
     id="g4"
     transform="matrix(0.72572877,0,0,0.72572877,8.0339671,8.0339671)"><path
       opacity="0.5"
       d="M 2,12 C 2,7.28595 2,4.92893 3.46447,3.46447 4.92893,2 7.28595,2 12,2 16.714,2 19.0711,2 20.5355,3.46447 22,4.92893 22,7.28595 22,12 c 0,4.714 0,7.0711 -1.4645,8.5355 C 19.0711,22 16.714,22 12,22 7.28595,22 4.92893,22 3.46447,20.5355 2,19.0711 2,16.714 2,12 Z"
       fill="#1c274c"
       id="path1" /><path
       d="M 3.46451,20.5355 C 4.92902,22 7.28611,22 12.0003,22 c 4.7142,0 7.0713,0 8.5358,-1.4645 C 21.8931,19.1785 21.9927,17.0551 22,13 h -3.1598 c -0.9052,0 -1.3578,0 -1.7556,0.183 -0.3978,0.1829 -0.6924,0.5266 -1.2815,1.2138 l -0.6054,0.7064 C 14.6086,15.7904 14.314,16.1341 13.9162,16.317 13.5183,16.5 13.0658,16.5 12.1606,16.5 H 11.84 c -0.9052,0 -1.3578,0 -1.7556,-0.183 C 9.68655,16.1341 9.392,15.7904 8.80291,15.1032 L 8.19747,14.3968 C 7.60837,13.7096 7.31382,13.3659 6.91599,13.183 6.51815,13 6.06555,13 5.16035,13 H 2 c 0.0073,4.0551 0.10744,6.1785 1.46451,7.5355 z"
       fill="#1c274c"
       id="path2" /><path
       d="m 12.5305,11.3301 c -0.1406,0.1407 -0.3314,0.2197 -0.5303,0.2197 -0.1989,0 -0.3897,-0.079 -0.5303,-0.2197 L 8.16987,8.03014 c -0.2929,-0.2929 -0.2929,-0.76777 0,-1.06066 0.29289,-0.2929 0.76776,-0.2929 1.06066,-10e-6 L 11.2502,8.98914 V 2.00024 C 11.4933,2 11.7431,2 12,2 c 0.257,0 0.507,0 0.7502,2.4e-4 v 6.9889 l 2.0197,-2.01967 c 0.2929,-0.29289 0.7677,-0.29289 1.0606,0 0.2929,0.2929 0.2929,0.76777 0,1.06066 z"
       fill="#1c274c"
       id="path3" /></g><g
     style="fill:none"
     id="g3"
     transform="matrix(0.74919836,0,0,0.74919836,-1.4983967,-0.93649795)"><path
       opacity="0.5"
       d="M 3.17157,18.8284 C 4.34315,20 6.22876,20 10,20 l 5.75,-0.0056 c 2.6359,-0.0276 4.1041,-0.1916 5.0784,-1.1659 C 22,17.6569 22,15.7713 22,12 22,8.22879 22,6.34317 20.8284,5.1716 19.8541,4.19727 18.3738,4.02762 15.7379,4 H 10 C 6.22876,4 4.34315,4 3.17157,5.17157 2,6.34315 2,8.22876 2,12 c 0,3.7712 0,5.6569 1.17157,6.8284 z"
       fill="#1c274c"
       id="path1-8" /><path
       fill-rule="evenodd"
       clip-rule="evenodd"
       d="m 15,1.25 c 0.4142,0 0.75,0.33579 0.75,0.75 V 4.00559 19.9944 22 c 0,0.4142 -0.3358,0.75 -0.75,0.75 -0.4142,0 -0.75,-0.3358 -0.75,-0.75 V 2 c 0,-0.41421 0.3358,-0.75 0.75,-0.75 z"
       fill="#1c274c"
       id="path2-8" /><path
       d="M 6.81782,7.78733 C 7.11779,7.74992 7.48429,7.74996 7.88383,7.75 h 2.23237 c 0.3995,-4e-5 0.766,-8e-5 1.066,0.03733 0.3287,0.041 0.679,0.13687 0.9802,0.40454 0.0514,0.04566 0.1001,0.09431 0.1457,0.14569 0.2677,0.30122 0.3636,0.65159 0.4046,0.98026 0.0374,0.29997 0.0374,0.66646 0.0373,1.06598 v 0.0412 c 0,0.4142 -0.3358,0.75 -0.75,0.75 -0.4142,0 -0.75,-0.3358 -0.75,-0.75 0,-0.45453 -0.0014,-0.72569 -0.0258,-0.92152 C 11.1998,9.30765 10.9965,9.2758 10.9965,9.2758 10.8007,9.25137 10.5295,9.25001 10.075,9.25001 H 9.75001 V 14.75 H 11 c 0.4142,0 0.75,0.3358 0.75,0.75 0,0.4142 -0.3358,0.75 -0.75,0.75 H 7.00001 c -0.41422,0 -0.75,-0.3358 -0.75,-0.75 0,-0.4142 0.33578,-0.75 0.75,-0.75 h 1.25 V 9.25001 H 7.925 c -0.45453,0 -0.72569,0.00136 -0.92152,0.02579 0,0 -0.20325,0.03185 -0.22768,0.22768 -0.02443,0.19583 -0.02579,0.46699 -0.02579,0.92152 0,0.4142 -0.33579,0.75 -0.75,0.75 -0.41422,0 -0.75,-0.3358 -0.75,-0.75 L 5.25,10.3838 C 5.24996,9.98428 5.24992,9.61779 5.28733,9.31782 5.32833,8.98915 5.4242,8.63878 5.69187,8.33756 5.73753,8.28618 5.78618,8.23753 5.83756,8.19187 6.13878,7.9242 6.48915,7.82833 6.81782,7.78733 Z"
       fill="#1c274c"
       id="path3-2" /></g></svg>
