<?xml version="1.0" encoding="UTF-8" standalone="no"?>
<!-- Uploaded to: SVG Repo, www.svgrepo.com, Generator: SVG Repo Mixer Tools -->

<svg
   width="800px"
   height="800px"
   viewBox="0 0 24 24"
   fill="none"
   version="1.1"
   id="svg3"
   sodipodi:docname="main_rename_move.svg"
   xml:space="preserve"
   inkscape:version="1.4.2 (f4327f4, 2025-05-13)"
   xmlns:inkscape="http://www.inkscape.org/namespaces/inkscape"
   xmlns:sodipodi="http://sodipodi.sourceforge.net/DTD/sodipodi-0.dtd"
   xmlns="http://www.w3.org/2000/svg"
   xmlns:svg="http://www.w3.org/2000/svg"><defs
     id="defs3" /><sodipodi:namedview
     id="namedview3"
     pagecolor="#ffffff"
     bordercolor="#000000"
     borderopacity="0.25"
     inkscape:showpageshadow="2"
     inkscape:pageopacity="0.0"
     inkscape:pagecheckerboard="0"
     inkscape:deskcolor="#d1d1d1"
     inkscape:zoom="1.00144"
     inkscape:cx="411.40757"
     inkscape:cy="367.97012"
     inkscape:window-width="2542"
     inkscape:window-height="1333"
     inkscape:window-x="2560"
     inkscape:window-y="0"
     inkscape:window-maximized="0"
     inkscape:current-layer="svg3" /><g
     style="fill:none"
     id="g3"
     transform="matrix(0.73387159,0,0,0.73387159,7.854825,7.3044213)"><path
       opacity="0.5"
       d="M 3.17157,18.8284 C 4.34315,20 6.22876,20 10,20 l 5.75,-0.0056 c 2.6359,-0.0276 4.1041,-0.1916 5.0784,-1.1659 C 22,17.6569 22,15.7713 22,12 22,8.22879 22,6.34317 20.8284,5.1716 19.8541,4.19727 18.3738,4.02762 15.7379,4 H 10 C 6.22876,4 4.34315,4 3.17157,5.17157 2,6.34315 2,8.22876 2,12 c 0,3.7712 0,5.6569 1.17157,6.8284 z"
       fill="#1c274c"
       id="path1-8" /><path
       fill-rule="evenodd"
       clip-rule="evenodd"
       d="m 15,1.25 c 0.4142,0 0.75,0.33579 0.75,0.75 V 4.00559 19.9944 22 c 0,0.4142 -0.3358,0.75 -0.75,0.75 -0.4142,0 -0.75,-0.3358 -0.75,-0.75 V 2 c 0,-0.41421 0.3358,-0.75 0.75,-0.75 z"
       fill="#1c274c"
       id="path2-8" /><path
       d="M 6.81782,7.78733 C 7.11779,7.74992 7.48429,7.74996 7.88383,7.75 h 2.23237 c 0.3995,-4e-5 0.766,-8e-5 1.066,0.03733 0.3287,0.041 0.679,0.13687 0.9802,0.40454 0.0514,0.04566 0.1001,0.09431 0.1457,0.14569 0.2677,0.30122 0.3636,0.65159 0.4046,0.98026 0.0374,0.29997 0.0374,0.66646 0.0373,1.06598 v 0.0412 c 0,0.4142 -0.3358,0.75 -0.75,0.75 -0.4142,0 -0.75,-0.3358 -0.75,-0.75 0,-0.45453 -0.0014,-0.72569 -0.0258,-0.92152 C 11.1998,9.30765 10.9965,9.2758 10.9965,9.2758 10.8007,9.25137 10.5295,9.25001 10.075,9.25001 H 9.75001 V 14.75 H 11 c 0.4142,0 0.75,0.3358 0.75,0.75 0,0.4142 -0.3358,0.75 -0.75,0.75 H 7.00001 c -0.41422,0 -0.75,-0.3358 -0.75,-0.75 0,-0.4142 0.33578,-0.75 0.75,-0.75 h 1.25 V 9.25001 H 7.925 c -0.45453,0 -0.72569,0.00136 -0.92152,0.02579 0,0 -0.20325,0.03185 -0.22768,0.22768 -0.02443,0.19583 -0.02579,0.46699 -0.02579,0.92152 0,0.4142 -0.33579,0.75 -0.75,0.75 -0.41422,0 -0.75,-0.3358 -0.75,-0.75 L 5.25,10.3838 C 5.24996,9.98428 5.24992,9.61779 5.28733,9.31782 5.32833,8.98915 5.4242,8.63878 5.69187,8.33756 5.73753,8.28618 5.78618,8.23753 5.83756,8.19187 6.13878,7.9242 6.48915,7.82833 6.81782,7.78733 Z"
       fill="#1c274c"
       id="path3-2" /></g><g
     style="fill:none"
     id="g1"
     transform="matrix(0.82026112,0,0,0.82026112,-1.6405222,-1.6405222)"><path
       d="m 8.42229,20.6181 c 1.75561,0.9214 2.63341,1.382 3.57771,1.382 v -10 L 2.63802,7.07275 C 2.62423,7.09491 2.6107,7.11727 2.5974,7.13986 2,8.15436 2,9.41678 2,11.9416 v 0.117 c 0,2.5248 0,3.7873 0.5974,4.8018 0.59739,1.0145 1.67323,1.5791 3.82489,2.7082 z"
       fill="#1c274c"
       id="path1" /><path
       opacity="0.7"
       d="m 17.5774,4.43152 -2,-1.04955 C 13.8218,2.46066 12.944,2 11.9997,2 11.0554,2 10.1776,2.46066 8.42197,3.38197 l -2,1.04955 C 4.31821,5.53552 3.24291,6.09982 2.6377,7.07264 L 11.9997,12 21.3617,7.07264 C 20.7564,6.09982 19.6811,5.53552 17.5774,4.43152 Z"
       fill="#1c274c"
       id="path2" /><path
       opacity="0.5"
       d="M 21.4026,7.13986 C 21.3893,7.11727 21.3758,7.09491 21.362,7.07275 L 12,12.0001 v 10 c 0.9443,0 1.8221,-0.4606 3.5777,-1.382 l 2,-1.0495 c 2.1517,-1.1291 3.2275,-1.6937 3.8249,-2.7082 C 22,15.8459 22,14.5834 22,12.0586 v -0.117 C 22,9.41678 22,8.15436 21.4026,7.13986 Z"
       fill="#1c274c"
       id="path3" /><path
       d="M 6.32334,4.48382 C 6.35617,4.46658 6.38926,4.44922 6.42261,4.43172 L 7.91614,3.64795 17.0169,8.65338 21.0406,6.64152 c 0.1377,0.15593 0.2574,0.32023 0.3623,0.49842 0.1496,0.25402 0.2617,0.52358 0.3458,0.82461 l -3.9984,1.99918 v 3.03647 c 0,0.4142 -0.3358,0.75 -0.75,0.75 -0.4142,0 -0.75,-0.3358 -0.75,-0.75 v -2.2865 l -3.5,1.75 v 9.4405 c -0.2569,0.064 -0.5011,0.096 -0.75,0.096 -0.2488,0 -0.4931,-0.032 -0.75,-0.096 V 12.4637 L 2.25195,7.96455 C 2.33601,7.66352 2.44813,7.39396 2.59771,7.13994 2.70264,6.96175 2.82232,6.79745 2.96001,6.64152 l 9.04029,4.52018 3.3862,-1.69313 z"
       fill="#1c274c"
       id="path4" /></g></svg>
