<?xml version="1.0" encoding="UTF-8" standalone="no"?>
<!-- Created with Inkscape (http://www.inkscape.org/) -->

<svg
   version="1.1"
   id="svg46"
   width="30.000149mm"
   height="30.000237mm"
   viewBox="0 0 113.3864 113.38671"
   sodipodi:docname="icon.svg"
   inkscape:version="1.4.2 (f4327f4, 2025-05-13)"
   xml:space="preserve"
   xmlns:inkscape="http://www.inkscape.org/namespaces/inkscape"
   xmlns:sodipodi="http://sodipodi.sourceforge.net/DTD/sodipodi-0.dtd"
   xmlns="http://www.w3.org/2000/svg"
   xmlns:svg="http://www.w3.org/2000/svg"><defs
     id="defs50"><rect
       x="1867"
       y="-2246.5"
       width="211"
       height="120.5"
       id="rect5" /><rect
       x="1945.9579"
       y="-2206.1732"
       width="5328.7567"
       height="4027.6802"
       id="rect4" /><rect
       x="-108.5"
       y="-60.75"
       width="88.5"
       height="70.75"
       id="rect3" /><clipPath
       clipPathUnits="userSpaceOnUse"
       id="clipPath1534"><g
         inkscape:label="Clip"
         id="use1536"><path
           style="fill:#ffffff;fill-opacity:1;stroke:none;stroke-width:1.01271px;stroke-linecap:butt;stroke-linejoin:miter;stroke-opacity:1"
           d="m 164.20701,86.65567 c -182.067944,25.51456 -321.20844,54.42872 -475.25333,154.04234 l 26.15488,39.97073 C -168.60383,194.52858 13.411479,137.3831 164.19518,133.97404 Z"
           id="path1556"
           sodipodi:nodetypes="ccccc"
           transform="matrix(0.22224854,0,0,0.22224854,-101.66673,-98.921888)" /><path
           style="fill:#01b0f1;fill-opacity:1;stroke:none;stroke-width:1px;stroke-linecap:butt;stroke-linejoin:miter;stroke-opacity:1"
           d="M -311.04632,240.69801 C -172.22661,139.3316 4.6191989,95.589371 164.20701,86.65567 v 31.24357 c -152.929989,7.63864 -320.79085,52.72483 -457.92537,149.28608 z"
           id="path1558"
           sodipodi:nodetypes="ccccc"
           transform="matrix(0.22224854,0,0,0.22224854,-101.66673,-98.921888)" /><path
           style="fill:#ed3338;fill-opacity:1;stroke:none;stroke-width:1px;stroke-linecap:butt;stroke-linejoin:miter;stroke-opacity:1"
           d="M -290.22214,272.54926 C -160.12499,183.06419 9.0580893,133.33756 164.20808,124.04038 l -0.0129,9.93366 c -145.386078,5.70615 -321.97802,57.65049 -449.08662,146.6947 z"
           id="path1560"
           sodipodi:nodetypes="ccccc"
           transform="matrix(0.22224854,0,0,0.22224854,-101.66673,-98.921888)" /><path
           style="fill:#ffffff;fill-opacity:1;stroke:none;stroke-width:1px;stroke-linecap:butt;stroke-linejoin:miter;stroke-opacity:1"
           d="m -219.46827,288.47488 h 14.875 v 87.97595 c 0,41.46721 63.55751,42.03048 63.875,0 v -87.97595 h 14.875 v 87.97595 c 0,59.06419 -93.04945,60.97962 -93.625,0 z"
           id="path1562"
           sodipodi:nodetypes="ccccccccc"
           transform="matrix(0.22224854,0,0,0.22224854,-101.66673,-98.921888)" /><path
           style="fill:#ffffff;fill-opacity:1;stroke:none;stroke-width:1px;stroke-linecap:butt;stroke-linejoin:miter;stroke-opacity:1"
           d="m -116.80952,288.47488 v 13.78774 h 31.46625 v 117.2766 h 14.875 v -117.2766 h 31.794049 v -13.78774 z"
           id="path1564"
           transform="matrix(0.22224854,0,0,0.22224854,-101.66673,-98.921888)" /><path
           style="fill:#ffffff;fill-opacity:1;stroke:none;stroke-width:1px;stroke-linecap:butt;stroke-linejoin:miter;stroke-opacity:1"
           d="M 38.930748,288.47488 H -29.09327 V 419.53922 H 38.930748 V 405.70083 H -14.21827 v -51.28661 h 51.558028 v -13.4375 H -14.21827 v -38.7141 h 53.149018 v -13.78774"
           id="path1566"
           transform="matrix(0.22224854,0,0,0.22224854,-101.66673,-98.921888)" /><path
           style="fill:#ffffff;fill-opacity:1;stroke:none;stroke-width:0.2;stroke-linecap:butt;stroke-linejoin:miter;stroke-miterlimit:4;stroke-dasharray:none;stroke-opacity:1"
           d="m 110.93963,286.7955 c -81.013169,13.72178 -78.428299,122.95597 0,134.28661 V 407.5455 c -61.024068,-13.16025 -59.246914,-94.66112 0,-107.12755 z"
           id="path1568"
           sodipodi:nodetypes="ccccc"
           transform="matrix(0.22224854,0,0,0.22224854,-101.66673,-98.921888)" /><rect
           style="fill:#ffffff;fill-opacity:1;stroke:none;stroke-width:0.187848;stroke-miterlimit:4;stroke-dasharray:none;stroke-opacity:1"
           id="rect1570"
           width="330.98474"
           height="10"
           x="-220.0451"
           y="453.98166"
           transform="matrix(0.22224854,0,0,0.22224854,-101.66673,-98.921888)" /></g></clipPath><clipPath
       clipPathUnits="userSpaceOnUse"
       id="clipPath1593"><g
         inkscape:label="Clip"
         id="use1595"><path
           style="fill:#ffffff;fill-opacity:1;stroke:none;stroke-width:0.222249px;stroke-linecap:butt;stroke-linejoin:miter;stroke-opacity:1"
           d="m -150.44323,-34.808767 h 3.30594 v 19.552526 c 0,9.2160272 14.12557,9.3412132 14.19613,0 v -19.552526 h 3.30595 v 19.552526 c 0,13.1269303 -20.68011,13.5526319 -20.80802,0 z"
           id="path2219"
           sodipodi:nodetypes="ccccccccc" /><path
           style="fill:#ffffff;fill-opacity:1;stroke:none;stroke-width:0.222249px;stroke-linecap:butt;stroke-linejoin:miter;stroke-opacity:1"
           d="m -127.62748,-34.808767 v 3.064305 h 6.99333 v 26.0645531 h 3.30595 V -31.744462 h 7.06618 v -3.064305 z"
           id="path2221" /><path
           style="fill:#ffffff;fill-opacity:1;stroke:none;stroke-width:0.222249px;stroke-linecap:butt;stroke-linejoin:miter;stroke-opacity:1"
           d="m -93.014428,-34.808767 h -15.118242 v 29.1288581 h 15.118242 v -3.075562 H -104.82672 V -20.153845 h 11.458697 v -2.986465 h -11.458697 v -8.604152 h 11.812292 v -3.064305"
           id="path2223" /><path
           style="fill:#ffffff;fill-opacity:1;stroke:none;stroke-width:0.0444497;stroke-linecap:butt;stroke-linejoin:miter;stroke-miterlimit:4;stroke-dasharray:none;stroke-opacity:1"
           d="m -77.010559,-35.182007 c -18.005059,3.049646 -17.430575,27.326785 0,29.8450032 v -3.0084918 c -13.56251,-2.9248464 -13.16754,-21.0382954 0,-23.8089414 z"
           id="path2225"
           sodipodi:nodetypes="ccccc" /><path
           style="fill:#ffffff;fill-opacity:1;stroke:none;stroke-width:0.0417489;stroke-miterlimit:4;stroke-dasharray:none;stroke-opacity:1"
           id="path2227"
           width="73.560875"
           height="2.2224853"
           x="-150.57143"
           y="1.9748728"
           sodipodi:type="rect"
           d="m -150.57143,1.9748728 h 73.560879 v 2.2224853 h -73.560879 z" /></g></clipPath><filter
       id="mask-powermask-path-effect2123_inverse"
       inkscape:label="filtermask-powermask-path-effect2123"
       style="color-interpolation-filters:sRGB"
       height="100"
       width="100"
       x="-50"
       y="-50"><feColorMatrix
         id="mask-powermask-path-effect2123_primitive1"
         values="1"
         type="saturate"
         result="fbSourceGraphic" /><feColorMatrix
         id="mask-powermask-path-effect2123_primitive2"
         values="-1 0 0 0 1 0 -1 0 0 1 0 0 -1 0 1 0 0 0 1 0 "
         in="fbSourceGraphic" /></filter></defs><sodipodi:namedview
     id="namedview48"
     pagecolor="#ffffff"
     bordercolor="#666666"
     borderopacity="1.0"
     inkscape:pageshadow="2"
     inkscape:pageopacity="0"
     inkscape:pagecheckerboard="true"
     showgrid="false"
     inkscape:snap-grids="true"
     inkscape:zoom="5.6568542"
     inkscape:cx="96.078135"
     inkscape:cy="61.429902"
     inkscape:window-width="2560"
     inkscape:window-height="1351"
     inkscape:window-x="-9"
     inkscape:window-y="-4"
     inkscape:window-maximized="1"
     inkscape:current-layer="svg46"
     inkscape:object-paths="true"
     inkscape:snap-intersection-paths="true"
     inkscape:snap-nodes="true"
     showguides="true"
     fit-margin-top="0"
     fit-margin-left="0"
     fit-margin-right="0"
     fit-margin-bottom="0"
     showborder="false"
     units="mm"
     inkscape:document-units="mm"
     inkscape:showpageshadow="2"
     inkscape:deskcolor="#d1d1d1" /><g
     id="g993"
     transform="matrix(0.22224854,0,0,0.22224854,69.12959,1.192149)"
     inkscape:label="UTEC-Logo"
     style="display:inline;opacity:1"><path
       id="path69219"
       style="fill:#97989c;fill-opacity:1;stroke:none;stroke-width:0.347532px;stroke-linecap:butt;stroke-linejoin:miter;stroke-opacity:1"
       d="M -6.5292969,-7.25 V 39.835938 C 19.514288,25.545619 44.557676,19.572409 74.535156,14.945312 V -7.25 Z M 74.535156,24.464844 C 46.686167,27.213505 16.001283,37.18118 -6.5292969,51.582031 V 106.13672 H 74.535156 V 97.060547 H 0.97460938 V 94.839844 H 74.535156 v -7.3125 c -17.430574,-2.518218 -18.005058,-26.796058 0,-29.845703 z M 1.1035156,58.054688 h 3.3046875 v 19.552734 c 0,9.216027 14.1267039,9.341213 14.1972659,0 V 58.054688 h 3.304687 v 19.552734 c 0,13.12693 -20.6787252,13.552631 -20.8066404,0 z m 22.8144534,0 h 17.367187 v 3.064453 H 34.21875 V 87.183594 H 30.912109 V 61.119141 h -6.99414 z m 19.496093,0 H 58.53125 v 3.064453 h -11.8125 v 8.605468 h 11.458984 v 2.986329 H 46.71875 v 11.398437 h 11.8125 v 3.074219 H 43.414062 Z m 31.121094,2.654296 c -13.16754,2.770646 -13.56251,20.883748 0,23.808594 z"
       transform="matrix(4.4994672,0,0,4.4994672,-224.43158,27.257101)" /><path
       style="opacity:1;fill:#01b0f1;fill-opacity:1;stroke:none;stroke-width:1px;stroke-linecap:butt;stroke-linejoin:miter;stroke-opacity:1"
       d="M -311.04632,240.69801 C -172.22661,139.3316 4.6191989,95.589371 164.20701,86.65567 v 31.24357 c -152.929989,7.63864 -320.79085,52.72483 -457.92537,149.28608 z"
       id="path4542"
       sodipodi:nodetypes="ccccc" /><path
       style="opacity:1;fill:#ed3338;fill-opacity:1;stroke:none;stroke-width:1px;stroke-linecap:butt;stroke-linejoin:miter;stroke-opacity:1"
       d="M -290.22214,272.54926 C -160.12499,183.06419 9.0580893,133.33756 164.20808,124.04038 l -0.0129,9.93366 c -145.386078,5.70615 -321.97802,57.65049 -449.08662,146.6947 z"
       id="path4542-8"
       sodipodi:nodetypes="ccccc" /><path
       style="opacity:1;fill:#97989c;fill-opacity:1;stroke:none;stroke-width:0.3;stroke-linecap:butt;stroke-linejoin:miter;stroke-miterlimit:4;stroke-dasharray:none;stroke-opacity:1"
       d="M 158.13901,317.20025 V 299.25826 C 143.30939,288.28375 129.21319,285.09774 110.93963,286.7955 v 13.62245 c 19.61089,-2.6236 35.11341,4.33655 47.19938,16.7823"
       id="path63717"
       sodipodi:nodetypes="ccccc" /><path
       style="fill:#97989c;fill-opacity:1;stroke:none;stroke-width:0.3;stroke-linecap:butt;stroke-linejoin:miter;stroke-miterlimit:4;stroke-dasharray:none;stroke-opacity:1"
       d="m 158.13901,390.81301 v 17.89302 c -13.82255,10.2004 -31.56024,14.6275 -47.19938,12.37608 V 407.5455 c 15.12233,1.85384 30.66812,-1.44443 47.19938,-16.73249"
       id="path65508"
       sodipodi:nodetypes="ccccc" /><rect
       style="opacity:1;fill:#97989c;fill-opacity:1;stroke:none;stroke-width:0.179495;stroke-miterlimit:4;stroke-dasharray:none;stroke-opacity:1"
       id="rect68595"
       width="88.19239"
       height="10.000001"
       x="110.93963"
       y="453.98166" /></g><g
     style="fill:none"
     id="g1"
     transform="matrix(5.6693195,0,0,3.785856,-11.338639,-15.143424)"><g
       id="SVGRepo_bgCarrier"
       stroke-width="0" /><g
       id="SVGRepo_tracerCarrier"
       stroke-linecap="round"
       stroke-linejoin="round" /><g
       id="SVGRepo_iconCarrier"><path
         d="M 4.97883,9.68508 C 2.99294,8.89073 2,8.49355 2,8 2,7.50645 2.99294,7.10927 4.97883,6.31492 L 7.7873,5.19153 C 9.77318,4.39718 10.7661,4 12,4 c 1.2339,0 2.2268,0.39718 4.2127,1.19153 l 2.8085,1.12339 C 21.0071,7.10927 22,7.50645 22,8 22,8.49355 21.0071,8.89073 19.0212,9.68508 L 16.2127,10.8085 C 14.2268,11.6028 13.2339,12 12,12 10.7661,12 9.77318,11.6028 7.7873,10.8085 Z"
         fill="#1c274c"
         id="path1" /><path
         fill-rule="evenodd"
         clip-rule="evenodd"
         d="M 2,8 C 2,8.49355 2.99294,8.89073 4.97883,9.68508 L 7.7873,10.8085 C 9.77318,11.6028 10.7661,12 12,12 c 1.2339,0 2.2268,-0.3972 4.2127,-1.1915 L 19.0212,9.68508 C 21.0071,8.89073 22,8.49355 22,8 22,7.50645 21.0071,7.10927 19.0212,6.31492 L 16.2127,5.19153 C 14.2268,4.39718 13.2339,4 12,4 10.7661,4 9.77318,4.39718 7.7873,5.19153 L 4.97883,6.31492 C 2.99294,7.10927 2,7.50645 2,8 Z"
         fill="#1c274c"
         id="path2" /><path
         opacity="0.7"
         d="m 5.76613,10 -0.7873,0.3149 C 2.99294,11.1093 2,11.5065 2,12 c 0,0.4935 0.99294,0.8907 2.97883,1.6851 L 7.7873,14.8085 C 9.77318,15.6028 10.7661,16 12,16 c 1.2339,0 2.2268,-0.3972 4.2127,-1.1915 l 2.8085,-1.1234 C 21.0071,12.8907 22,12.4935 22,12 22,11.5065 21.0071,11.1093 19.0212,10.3149 L 18.2339,10 16.2127,10.8085 C 14.2268,11.6028 13.2339,12 12,12 10.7661,12 9.77318,11.6028 7.7873,10.8085 Z"
         fill="#1c274c"
         id="path3" /><path
         opacity="0.4"
         d="m 5.76613,14 -0.7873,0.3149 C 2.99294,15.1093 2,15.5065 2,16 c 0,0.4935 0.99294,0.8907 2.97883,1.6851 L 7.7873,18.8085 C 9.77318,19.6028 10.7661,20 12,20 c 1.2339,0 2.2268,-0.3972 4.2127,-1.1915 l 2.8085,-1.1234 C 21.0071,16.8907 22,16.4935 22,16 22,15.5065 21.0071,15.1093 19.0212,14.3149 L 18.2339,14 16.2127,14.8085 C 14.2268,15.6028 13.2339,16 12,16 10.7661,16 9.77318,15.6028 7.7873,14.8085 Z"
         fill="#1c274c"
         id="path4" /></g></g></svg>
